<?xml version="1.0" encoding="UTF-8"?>
<!DOCTYPE svg PUBLIC "-//W3C//DTD SVG 1.1//EN" "http://www.w3.org/Graphics/SVG/1.1/DTD/svg11.dtd">
<svg xmlns="http://www.w3.org/2000/svg" version="1.1" width="683px" height="683px" style="shape-rendering:geometricPrecision; text-rendering:geometricPrecision; image-rendering:optimizeQuality; fill-rule:evenodd; clip-rule:evenodd" xmlns:xlink="http://www.w3.org/1999/xlink">
<g><path style="opacity:0.999" fill="#fee052" d="M 315.5,-0.5 C 332.5,-0.5 349.5,-0.5 366.5,-0.5C 399.705,2.4773 432.039,9.81064 463.5,21.5C 440.006,22.4976 416.339,22.8309 392.5,22.5C 392.5,38.8333 392.5,55.1667 392.5,71.5C 383.54,70.5851 374.54,70.2518 365.5,70.5C 342.498,70.3334 319.498,70.5 296.5,71C 245.435,78.7302 210.268,106.564 191,154.5C 187.735,163.56 185.735,172.893 185,182.5C 184.5,207.498 184.333,232.498 184.5,257.5C 184.5,268.5 184.5,279.5 184.5,290.5C 158.339,287.727 141.339,298.727 133.5,323.5C 129.58,328.352 125.913,333.352 122.5,338.5C 116.768,343.898 111.768,349.898 107.5,356.5C 116.234,387.377 127.9,417.043 142.5,445.5C 138.525,454.339 138.525,463.173 142.5,472C 142.272,472.399 141.938,472.565 141.5,472.5C 139.401,471.769 137.401,471.769 135.5,472.5C 120.511,512.448 113.511,553.781 114.5,596.5C 94.4242,579.922 76.9242,560.922 62,539.5C 25.804,487.414 4.97065,429.747 -0.5,366.5C -0.5,347.5 -0.5,328.5 -0.5,309.5C 12.2341,202.817 62.2341,118.65 149.5,57C 200.069,23.9775 255.402,4.81079 315.5,-0.5 Z"/></g>
<g><path style="opacity:0.995" fill="#f1efeb" d="M 463.5,21.5 C 524.833,21.5 586.167,21.5 647.5,21.5C 647.5,77.5 647.5,133.5 647.5,189.5C 646.508,196.982 646.175,204.648 646.5,212.5C 626.66,212.17 606.993,212.503 587.5,213.5C 557.203,229.982 527.203,246.982 497.5,264.5C 496.577,265.303 495.577,265.47 494.5,265C 495.973,262.552 497.307,260.052 498.5,257.5C 504.212,243.073 510.212,228.74 516.5,214.5C 510.202,213.504 503.868,213.17 497.5,213.5C 487.833,213.5 478.167,213.5 468.5,213.5C 443.167,213.5 417.833,213.5 392.5,213.5C 392.5,207.5 392.5,201.5 392.5,195.5C 392.5,154.167 392.5,112.833 392.5,71.5C 392.5,55.1667 392.5,38.8333 392.5,22.5C 416.339,22.8309 440.006,22.4976 463.5,21.5 Z"/></g>
<g><path style="opacity:1" fill="#2a2f4f" d="M 365.5,70.5 C 309.094,81.2392 273.094,114.239 257.5,169.5C 242.774,167.539 228.108,165.206 213.5,162.5C 213.5,194.167 213.5,225.833 213.5,257.5C 203.833,257.5 194.167,257.5 184.5,257.5C 184.333,232.498 184.5,207.498 185,182.5C 185.735,172.893 187.735,163.56 191,154.5C 210.268,106.564 245.435,78.7302 296.5,71C 319.498,70.5 342.498,70.3334 365.5,70.5 Z"/></g>
<g><path style="opacity:1" fill="#3d4159" d="M 365.5,70.5 C 374.54,70.2518 383.54,70.5851 392.5,71.5C 392.5,112.833 392.5,154.167 392.5,195.5C 347.475,187.295 302.475,178.962 257.5,170.5C 257.5,170.167 257.5,169.833 257.5,169.5C 273.094,114.239 309.094,81.2392 365.5,70.5 Z"/></g>
<g><path style="opacity:1" fill="#3f435b" d="M 468.5,99.5 C 483.005,99.8369 490.172,107.17 490,121.5C 485.447,133.526 476.947,137.693 464.5,134C 454.909,127.562 452.409,119.062 457,108.5C 459.683,103.922 463.517,100.922 468.5,99.5 Z"/></g>
<g><path style="opacity:1" fill="#3f435a" d="M 515.5,99.5 C 534.087,100.327 540.587,109.66 535,127.5C 526.556,136.878 517.223,137.878 507,130.5C 498.684,116.953 501.518,106.619 515.5,99.5 Z"/></g>
<g><path style="opacity:1" fill="#3f435b" d="M 563.5,99.5 C 578.005,99.8369 585.172,107.17 585,121.5C 580.447,133.526 571.947,137.693 559.5,134C 549.909,127.562 547.409,119.062 552,108.5C 554.683,103.922 558.517,100.922 563.5,99.5 Z"/></g>
<g><path style="opacity:1" fill="#eab599" d="M 257.5,169.5 C 257.5,169.833 257.5,170.167 257.5,170.5C 256.178,170.33 255.011,170.663 254,171.5C 243.54,189.879 236.874,209.546 234,230.5C 233.071,265.189 233.405,299.856 235,334.5C 248.27,399.774 286.77,442.274 350.5,462C 355.5,462.833 360.5,463.667 365.5,464.5C 372.317,463.748 378.984,462.415 385.5,460.5C 385.805,465.762 385.471,470.928 384.5,476C 364.792,483.006 344.458,486.173 323.5,485.5C 326.181,503.84 336.181,516.174 353.5,522.5C 349.975,523.21 346.642,524.21 343.5,525.5C 341.833,524.167 340.167,524.167 338.5,525.5C 317.806,521.973 303.973,510.306 297,490.5C 296.334,479.819 295.167,469.486 293.5,459.5C 248.883,444.556 216.883,415.556 197.5,372.5C 190.304,354.245 183.304,335.911 176.5,317.5C 177.67,308.809 179.003,300.142 180.5,291.5C 182.099,291.768 183.432,291.434 184.5,290.5C 184.5,279.5 184.5,268.5 184.5,257.5C 194.167,257.5 203.833,257.5 213.5,257.5C 213.5,225.833 213.5,194.167 213.5,162.5C 228.108,165.206 242.774,167.539 257.5,169.5 Z"/></g>
<g><path style="opacity:1" fill="#f5c9ad" d="M 257.5,170.5 C 302.475,178.962 347.475,187.295 392.5,195.5C 392.5,201.5 392.5,207.5 392.5,213.5C 417.833,213.5 443.167,213.5 468.5,213.5C 468.5,228.167 468.5,242.833 468.5,257.5C 478.167,257.5 487.833,257.5 497.5,257.5C 497.833,257.5 498.167,257.5 498.5,257.5C 497.307,260.052 495.973,262.552 494.5,265C 495.577,265.47 496.577,265.303 497.5,264.5C 497.5,273.167 497.5,281.833 497.5,290.5C 519.502,287.916 535.669,296.249 546,315.5C 552.461,333.863 548.961,350.029 535.5,364C 524.47,372.674 512.136,375.84 498.5,373.5C 499.496,373.586 500.329,373.252 501,372.5C 503.365,364.676 504.698,356.676 505,348.5C 517.234,347.347 522.901,340.68 522,328.5C 519.439,320.467 513.939,316.8 505.5,317.5C 505.013,308.909 503.347,300.576 500.5,292.5C 499.675,291.614 498.675,291.281 497.5,291.5C 499.225,318.325 495.558,344.325 486.5,369.5C 466.987,413.347 434.654,443.347 389.5,459.5C 388.504,459.414 387.671,459.748 387,460.5C 390.101,480.622 384.935,498.122 371.5,513C 366.205,517.481 360.205,520.648 353.5,522.5C 336.181,516.174 326.181,503.84 323.5,485.5C 344.458,486.173 364.792,483.006 384.5,476C 385.471,470.928 385.805,465.762 385.5,460.5C 378.984,462.415 372.317,463.748 365.5,464.5C 360.5,463.667 355.5,462.833 350.5,462C 286.77,442.274 248.27,399.774 235,334.5C 233.405,299.856 233.071,265.189 234,230.5C 236.874,209.546 243.54,189.879 254,171.5C 255.011,170.663 256.178,170.33 257.5,170.5 Z"/></g>
<g><path style="opacity:0.999" fill="#fee052" d="M 647.5,190.5 C 667.92,232.182 679.587,276.182 682.5,322.5C 682.5,337.167 682.5,351.833 682.5,366.5C 672.617,468.453 627.617,550.953 547.5,614C 535.315,622.925 522.648,631.092 509.5,638.5C 509.83,621.658 509.497,604.992 508.5,588.5C 505.031,555.062 491.031,526.895 466.5,504C 461.949,500.566 457.282,497.399 452.5,494.5C 452.586,492.323 453.253,490.323 454.5,488.5C 441.745,481.706 428.912,475.039 416,468.5C 415.015,470.175 414.181,471.842 413.5,473.5C 405.164,469.335 397.164,464.668 389.5,459.5C 434.654,443.347 466.987,413.347 486.5,369.5C 490.303,371.434 494.303,372.768 498.5,373.5C 512.136,375.84 524.47,372.674 535.5,364C 548.961,350.029 552.461,333.863 546,315.5C 535.669,296.249 519.502,287.916 497.5,290.5C 497.5,281.833 497.5,273.167 497.5,264.5C 527.203,246.982 557.203,229.982 587.5,213.5C 607.5,213.5 627.5,213.5 647.5,213.5C 647.5,205.833 647.5,198.167 647.5,190.5 Z"/></g>
<g><path style="opacity:1" fill="#f6eabb" d="M 647.5,189.5 C 647.5,189.833 647.5,190.167 647.5,190.5C 647.5,198.167 647.5,205.833 647.5,213.5C 627.5,213.5 607.5,213.5 587.5,213.5C 606.993,212.503 626.66,212.17 646.5,212.5C 646.175,204.648 646.508,196.982 647.5,189.5 Z"/></g>
<g><path style="opacity:1" fill="#3d4159" d="M 468.5,213.5 C 478.167,213.5 487.833,213.5 497.5,213.5C 497.5,228.167 497.5,242.833 497.5,257.5C 487.833,257.5 478.167,257.5 468.5,257.5C 468.5,242.833 468.5,228.167 468.5,213.5 Z"/></g>
<g><path style="opacity:1" fill="#f9dc54" d="M 497.5,213.5 C 503.868,213.17 510.202,213.504 516.5,214.5C 510.212,228.74 504.212,243.073 498.5,257.5C 498.167,257.5 497.833,257.5 497.5,257.5C 497.5,242.833 497.5,228.167 497.5,213.5 Z"/></g>
<g><path style="opacity:1" fill="#40435a" d="M 283.5,283.5 C 302.084,282.046 309.584,290.379 306,308.5C 298.311,319.521 288.811,321.355 277.5,314C 269.174,301.606 271.174,291.439 283.5,283.5 Z"/></g>
<g><path style="opacity:1" fill="#3f435a" d="M 386.5,283.5 C 404.722,282.546 411.889,290.879 408,308.5C 401.802,318.452 393.302,320.952 382.5,316C 373.444,307.827 372.277,298.66 379,288.5C 381.479,286.686 383.979,285.019 386.5,283.5 Z"/></g>
<g><path style="opacity:1" fill="#f5caac" d="M 184.5,290.5 C 183.432,291.434 182.099,291.768 180.5,291.5C 179.003,300.142 177.67,308.809 176.5,317.5C 174.304,312.107 171.804,306.773 169,301.5C 161.683,303.285 154.516,305.285 147.5,307.5C 142.833,312.833 138.167,318.167 133.5,323.5C 141.339,298.727 158.339,287.727 184.5,290.5 Z"/></g>
<g><path style="opacity:1" fill="#f6f6f7" d="M 292.5,290.5 C 301.384,289.215 304.884,292.882 303,301.5C 297.967,306.997 293.3,306.664 289,300.5C 288.182,296.469 289.349,293.136 292.5,290.5 Z"/></g>
<g><path style="opacity:1" fill="#f4f5f6" d="M 395.5,290.5 C 403.07,289.164 406.903,292.164 407,299.5C 405.089,304.418 401.589,306.251 396.5,305C 390.335,300.524 390.001,295.691 395.5,290.5 Z"/></g>
<g><path style="opacity:1" fill="#eab599" d="M 498.5,373.5 C 494.303,372.768 490.303,371.434 486.5,369.5C 495.558,344.325 499.225,318.325 497.5,291.5C 498.675,291.281 499.675,291.614 500.5,292.5C 503.347,300.576 505.013,308.909 505.5,317.5C 513.939,316.8 519.439,320.467 522,328.5C 522.901,340.68 517.234,347.347 505,348.5C 504.698,356.676 503.365,364.676 501,372.5C 500.329,373.252 499.496,373.586 498.5,373.5 Z"/></g>
<g><path style="opacity:1" fill="#f0eeeb" d="M 176.5,317.5 C 183.304,335.911 190.304,354.245 197.5,372.5C 191.186,377.81 184.853,383.144 178.5,388.5C 168.363,361.422 158.03,334.422 147.5,307.5C 154.516,305.285 161.683,303.285 169,301.5C 171.804,306.773 174.304,312.107 176.5,317.5 Z"/></g>
<g><path style="opacity:1" fill="#66baec" d="M 147.5,307.5 C 158.03,334.422 168.363,361.422 178.5,388.5C 174.215,392.119 170.215,396.119 166.5,400.5C 167.964,405.425 169.964,410.091 172.5,414.5C 165.526,421.139 158.526,427.806 151.5,434.5C 135.768,404.306 126.101,372.306 122.5,338.5C 125.913,333.352 129.58,328.352 133.5,323.5C 138.167,318.167 142.833,312.833 147.5,307.5 Z"/></g>
<g><path style="opacity:1" fill="#eab599" d="M 319.5,323.5 C 333.837,323.333 348.171,323.5 362.5,324C 367.885,329.111 367.552,333.777 361.5,338C 347.833,338.667 334.167,338.667 320.5,338C 314.205,333.663 313.872,328.829 319.5,323.5 Z"/></g>
<g><path style="opacity:1" fill="#30a2ce" d="M 122.5,338.5 C 126.101,372.306 135.768,404.306 151.5,434.5C 148.25,438.022 145.25,441.689 142.5,445.5C 127.9,417.043 116.234,387.377 107.5,356.5C 111.768,349.898 116.768,343.898 122.5,338.5 Z"/></g>
<g><path style="opacity:1" fill="#eab599" d="M 303.5,364.5 C 305.527,364.338 307.527,364.505 309.5,365C 323.415,372.146 338.081,374.48 353.5,372C 360.949,369.772 368.282,367.272 375.5,364.5C 381.863,365.038 384.029,368.372 382,374.5C 356.101,390.845 329.601,391.679 302.5,377C 298.286,372.361 298.619,368.195 303.5,364.5 Z"/></g>
<g><path style="opacity:1" fill="#fee053" d="M 197.5,372.5 C 216.883,415.556 248.883,444.556 293.5,459.5C 285.301,464.432 276.968,469.099 268.5,473.5C 262.857,468.357 257.357,463.024 252,457.5C 244.273,460.566 236.773,463.899 229.5,467.5C 224.404,469.213 219.404,471.213 214.5,473.5C 210.526,471.191 207.192,468.191 204.5,464.5C 207.129,461.369 209.962,458.369 213,455.5C 219.548,445.308 220.048,434.975 214.5,424.5C 210.513,416.814 204.18,411.981 195.5,410C 187.178,408.392 179.512,409.892 172.5,414.5C 169.964,410.091 167.964,405.425 166.5,400.5C 170.215,396.119 174.215,392.119 178.5,388.5C 184.853,383.144 191.186,377.81 197.5,372.5 Z"/></g>
<g><path style="opacity:1" fill="#e9b599" d="M 214.5,424.5 C 203.723,419.874 193.39,420.707 183.5,427C 173.97,436.196 164.803,445.696 156,455.5C 152.151,461.978 150.651,468.978 151.5,476.5C 147.873,475.679 144.54,474.346 141.5,472.5C 141.938,472.565 142.272,472.399 142.5,472C 138.525,463.173 138.525,454.339 142.5,445.5C 145.25,441.689 148.25,438.022 151.5,434.5C 158.526,427.806 165.526,421.139 172.5,414.5C 179.512,409.892 187.178,408.392 195.5,410C 204.18,411.981 210.513,416.814 214.5,424.5 Z"/></g>
<g><path style="opacity:1" fill="#f5c9ad" d="M 214.5,424.5 C 220.048,434.975 219.548,445.308 213,455.5C 209.962,458.369 207.129,461.369 204.5,464.5C 198.035,470.464 191.702,476.631 185.5,483C 183.568,484.459 181.568,485.625 179.5,486.5C 170.844,483.507 162.177,480.507 153.5,477.5C 152.508,477.672 151.842,477.338 151.5,476.5C 150.651,468.978 152.151,461.978 156,455.5C 164.803,445.696 173.97,436.196 183.5,427C 193.39,420.707 203.723,419.874 214.5,424.5 Z"/></g>
<g><path style="opacity:1" fill="#f0efeb" d="M 268.5,473.5 C 280.123,486.126 291.79,498.793 303.5,511.5C 299.482,517.837 294.816,523.504 289.5,528.5C 269.5,508.167 249.5,487.833 229.5,467.5C 236.773,463.899 244.273,460.566 252,457.5C 257.357,463.024 262.857,468.357 268.5,473.5 Z"/></g>
<g><path style="opacity:1" fill="#d7d4cf" d="M 293.5,459.5 C 295.167,469.486 296.334,479.819 297,490.5C 303.973,510.306 317.806,521.973 338.5,525.5C 331.466,529.012 324.799,533.012 318.5,537.5C 308.507,541.825 299.174,547.159 290.5,553.5C 288.336,546.322 286.336,538.989 284.5,531.5C 286.261,530.687 287.928,529.687 289.5,528.5C 294.816,523.504 299.482,517.837 303.5,511.5C 291.79,498.793 280.123,486.126 268.5,473.5C 276.968,469.099 285.301,464.432 293.5,459.5 Z"/></g>
<g><path style="opacity:1" fill="#d7d4cf" d="M 389.5,459.5 C 397.164,464.668 405.164,469.335 413.5,473.5C 406.293,500.668 398.626,527.668 390.5,554.5C 390.67,553.178 390.337,552.011 389.5,551C 380.937,546.219 372.27,541.719 363.5,537.5C 357.118,533.137 350.451,529.137 343.5,525.5C 346.642,524.21 349.975,523.21 353.5,522.5C 360.205,520.648 366.205,517.481 371.5,513C 384.935,498.122 390.101,480.622 387,460.5C 387.671,459.748 388.504,459.414 389.5,459.5 Z"/></g>
<g><path style="opacity:1" fill="#66b9ec" d="M 204.5,464.5 C 207.192,468.191 210.526,471.191 214.5,473.5C 219.404,471.213 224.404,469.213 229.5,467.5C 249.5,487.833 269.5,508.167 289.5,528.5C 287.928,529.687 286.261,530.687 284.5,531.5C 273.449,534.013 262.449,536.68 251.5,539.5C 230.429,526.107 211.095,510.44 193.5,492.5C 188.751,490.695 184.085,488.695 179.5,486.5C 181.568,485.625 183.568,484.459 185.5,483C 191.702,476.631 198.035,470.464 204.5,464.5 Z"/></g>
<g><path style="opacity:1" fill="#2b2f4f" d="M 452.5,494.5 C 440.665,523.988 428.998,553.655 417.5,583.5C 423.472,584.33 429.472,584.83 435.5,585C 422.535,616.065 409.868,647.232 397.5,678.5C 387.342,679.685 377.342,681.019 367.5,682.5C 363.167,682.5 358.833,682.5 354.5,682.5C 357.972,670.946 360.972,659.279 363.5,647.5C 373.372,616.849 382.372,585.849 390.5,554.5C 398.626,527.668 406.293,500.668 413.5,473.5C 414.181,471.842 415.015,470.175 416,468.5C 428.912,475.039 441.745,481.706 454.5,488.5C 453.253,490.323 452.586,492.323 452.5,494.5 Z"/></g>
<g><path style="opacity:1" fill="#2c304f" d="M 141.5,472.5 C 144.54,474.346 147.873,475.679 151.5,476.5C 151.842,477.338 152.508,477.672 153.5,477.5C 146.747,499.424 141.581,521.757 138,544.5C 135.595,565.629 135.095,586.796 136.5,608C 136.453,610.295 135.787,612.129 134.5,613.5C 127.221,608.554 120.554,602.887 114.5,596.5C 113.511,553.781 120.511,512.448 135.5,472.5C 137.401,471.769 139.401,471.769 141.5,472.5 Z"/></g>
<g><path style="opacity:1" fill="#3d4158" d="M 153.5,477.5 C 162.177,480.507 170.844,483.507 179.5,486.5C 184.085,488.695 188.751,490.695 193.5,492.5C 192.167,497.5 190.833,502.5 189.5,507.5C 183.539,524.251 180.039,541.584 179,559.5C 183.846,544.801 191.013,531.468 200.5,519.5C 209.963,527.793 219.296,536.293 228.5,545C 234.869,544.328 241.203,543.161 247.5,541.5C 253.115,555.73 258.449,570.064 263.5,584.5C 257.794,584.171 252.128,584.505 246.5,585.5C 258.834,616.168 271.168,646.835 283.5,677.5C 284.791,677.263 285.791,677.596 286.5,678.5C 278.224,677.579 270.224,675.913 262.5,673.5C 260.095,672.232 257.428,671.565 254.5,671.5C 250.573,671.074 246.907,670.074 243.5,668.5C 239.498,666.39 235.165,665.057 230.5,664.5C 195.224,653.201 163.224,636.201 134.5,613.5C 135.787,612.129 136.453,610.295 136.5,608C 135.095,586.796 135.595,565.629 138,544.5C 141.581,521.757 146.747,499.424 153.5,477.5 Z"/></g>
<g><path style="opacity:1" fill="#2ca0ce" d="M 193.5,492.5 C 211.095,510.44 230.429,526.107 251.5,539.5C 250.329,540.345 248.995,541.011 247.5,541.5C 241.203,543.161 234.869,544.328 228.5,545C 219.296,536.293 209.963,527.793 200.5,519.5C 196.833,515.5 193.167,511.5 189.5,507.5C 190.833,502.5 192.167,497.5 193.5,492.5 Z"/></g>
<g><path style="opacity:1" fill="#3d4158" d="M 452.5,494.5 C 457.282,497.399 461.949,500.566 466.5,504C 491.031,526.895 505.031,555.062 508.5,588.5C 508.818,605.577 508.485,622.577 507.5,639.5C 473.213,658.82 436.547,671.82 397.5,678.5C 409.868,647.232 422.535,616.065 435.5,585C 429.472,584.83 423.472,584.33 417.5,583.5C 428.998,553.655 440.665,523.988 452.5,494.5 Z"/></g>
<g><path style="opacity:1" fill="#f9dd52" d="M 189.5,507.5 C 193.167,511.5 196.833,515.5 200.5,519.5C 191.013,531.468 183.846,544.801 179,559.5C 180.039,541.584 183.539,524.251 189.5,507.5 Z"/></g>
<g><path style="opacity:1" fill="#f65050" d="M 343.5,525.5 C 350.451,529.137 357.118,533.137 363.5,537.5C 356.477,547.698 349.81,558.198 343.5,569C 350.719,595.043 357.386,621.21 363.5,647.5C 360.972,659.279 357.972,670.946 354.5,682.5C 345.167,682.5 335.833,682.5 326.5,682.5C 323.706,670.784 320.706,659.117 317.5,647.5C 324.551,621.472 331.551,595.305 338.5,569C 332.19,558.198 325.523,547.698 318.5,537.5C 324.799,533.012 331.466,529.012 338.5,525.5C 340.167,524.167 341.833,524.167 343.5,525.5 Z"/></g>
<g><path style="opacity:1" fill="#2b2f4f" d="M 284.5,531.5 C 286.336,538.989 288.336,546.322 290.5,553.5C 299.175,584.858 308.175,616.192 317.5,647.5C 320.706,659.117 323.706,670.784 326.5,682.5C 322.167,682.5 317.833,682.5 313.5,682.5C 304.611,681.261 295.611,679.928 286.5,678.5C 285.791,677.596 284.791,677.263 283.5,677.5C 271.168,646.835 258.834,616.168 246.5,585.5C 252.128,584.505 257.794,584.171 263.5,584.5C 258.449,570.064 253.115,555.73 247.5,541.5C 248.995,541.011 250.329,540.345 251.5,539.5C 262.449,536.68 273.449,534.013 284.5,531.5 Z"/></g>
<g><path style="opacity:1" fill="#f1eeea" d="M 318.5,537.5 C 325.523,547.698 332.19,558.198 338.5,569C 331.551,595.305 324.551,621.472 317.5,647.5C 308.175,616.192 299.175,584.858 290.5,553.5C 299.174,547.159 308.507,541.825 318.5,537.5 Z"/></g>
<g><path style="opacity:1" fill="#f1eeea" d="M 363.5,537.5 C 372.27,541.719 380.937,546.219 389.5,551C 390.337,552.011 390.67,553.178 390.5,554.5C 382.372,585.849 373.372,616.849 363.5,647.5C 357.386,621.21 350.719,595.043 343.5,569C 349.81,558.198 356.477,547.698 363.5,537.5 Z"/></g>
<g><path style="opacity:1" fill="#746e56" d="M 508.5,588.5 C 509.497,604.992 509.83,621.658 509.5,638.5C 509.158,639.338 508.492,639.672 507.5,639.5C 508.485,622.577 508.818,605.577 508.5,588.5 Z"/></g>
<g><path style="opacity:0.996" fill="#9c9057" d="M 230.5,664.5 C 235.165,665.057 239.498,666.39 243.5,668.5C 238.835,667.943 234.502,666.61 230.5,664.5 Z"/></g>
<g><path style="opacity:0.988" fill="#afa154" d="M 254.5,671.5 C 257.428,671.565 260.095,672.232 262.5,673.5C 259.505,673.706 256.838,673.04 254.5,671.5 Z"/></g>
</svg>
